<svg width="12" height="15" viewBox="0 0 12 15" fill="none" xmlns="http://www.w3.org/2000/svg">
<mask id="path-1-inside-1_1905_16205" fill="white">
<path fill-rule="evenodd" clip-rule="evenodd" d="M1.75736 1.81981C4.10051 -0.606602 7.8995 -0.606602 10.2426 1.81981C12.5858 4.24621 12.5858 8.1802 10.2426 10.6066L6 15L1.75736 10.6066C-0.585787 8.18019 -0.585786 4.24621 1.75736 1.81981ZM6.17926 8.39306C7.24267 8.39306 8.10473 7.50036 8.10473 6.39917C8.10473 5.29797 7.24267 4.40527 6.17926 4.40527C5.11585 4.40527 4.25378 5.29797 4.25378 6.39917C4.25378 7.50036 5.11585 8.39306 6.17926 8.39306Z"/>
</mask>
<path fill-rule="evenodd" clip-rule="evenodd" d="M1.75736 1.81981C4.10051 -0.606602 7.8995 -0.606602 10.2426 1.81981C12.5858 4.24621 12.5858 8.1802 10.2426 10.6066L6 15L1.75736 10.6066C-0.585787 8.18019 -0.585786 4.24621 1.75736 1.81981ZM6.17926 8.39306C7.24267 8.39306 8.10473 7.50036 8.10473 6.39917C8.10473 5.29797 7.24267 4.40527 6.17926 4.40527C5.11585 4.40527 4.25378 5.29797 4.25378 6.39917C4.25378 7.50036 5.11585 8.39306 6.17926 8.39306Z" fill="#323232"/>
<path d="M10.2426 1.81981L8.80396 3.20912L8.80396 3.20912L10.2426 1.81981ZM1.75736 1.81981L3.19604 3.20912L1.75736 1.81981ZM10.2426 10.6066L11.6813 11.9959L11.6813 11.9959L10.2426 10.6066ZM6 15L4.56132 16.3893L6 17.8791L7.43868 16.3893L6 15ZM1.75736 10.6066L3.19604 9.21729V9.21729L1.75736 10.6066ZM11.6813 0.430491C8.55187 -2.81016 3.44813 -2.81016 0.318678 0.430491L3.19604 3.20912C4.75288 1.59696 7.24712 1.59696 8.80396 3.20912L11.6813 0.430491ZM11.6813 11.9959C14.7729 8.79449 14.7729 3.63192 11.6813 0.430491L8.80396 3.20912C10.3987 4.86051 10.3987 7.5659 8.80396 9.21729L11.6813 11.9959ZM7.43868 16.3893L11.6813 11.9959L8.80396 9.21729L4.56132 13.6107L7.43868 16.3893ZM0.318676 11.9959L4.56132 16.3893L7.43868 13.6107L3.19604 9.21729L0.318676 11.9959ZM0.318678 0.430491C-2.77289 3.63192 -2.77289 8.79449 0.318677 11.9959L3.19604 9.21729C1.60132 7.5659 1.60132 4.86051 3.19604 3.20912L0.318678 0.430491ZM6.10473 6.39917C6.10473 6.41186 6.10253 6.4175 6.10191 6.41903C6.10081 6.42171 6.10011 6.4218 6.10209 6.41975C6.1041 6.41767 6.1113 6.41097 6.12634 6.40439C6.14295 6.39711 6.16241 6.39306 6.17926 6.39306V10.3931C8.41249 10.3931 10.1047 8.53853 10.1047 6.39917H6.10473ZM6.17926 6.40527C6.16241 6.40527 6.14295 6.40122 6.12634 6.39395C6.1113 6.38736 6.1041 6.38067 6.10209 6.37859C6.10011 6.37653 6.10081 6.37662 6.10191 6.3793C6.10253 6.38083 6.10473 6.38647 6.10473 6.39917H10.1047C10.1047 4.2598 8.41249 2.40527 6.17926 2.40527V6.40527ZM6.25378 6.39917C6.25378 6.38647 6.25598 6.38083 6.25661 6.3793C6.2577 6.37662 6.2584 6.37653 6.25642 6.37859C6.25441 6.38067 6.24721 6.38736 6.23217 6.39395C6.21556 6.40122 6.1961 6.40527 6.17926 6.40527V2.40527C3.94603 2.40527 2.25378 4.2598 2.25378 6.39917H6.25378ZM6.17926 6.39306C6.1961 6.39306 6.21556 6.39711 6.23217 6.40439C6.24721 6.41097 6.25441 6.41767 6.25642 6.41975C6.2584 6.4218 6.2577 6.42171 6.25661 6.41903C6.25598 6.4175 6.25378 6.41186 6.25378 6.39917H2.25378C2.25378 8.53853 3.94603 10.3931 6.17926 10.3931V6.39306Z" fill="#323232" mask="url(#path-1-inside-1_1905_16205)"/>
</svg>
