<svg width="12" height="12" viewBox="0 0 12 12" fill="none" xmlns="http://www.w3.org/2000/svg">
<path d="M0.387356 5.79133L3.06861 6.79703L4.10642 10.1512C4.17283 10.366 4.43422 10.4455 4.60772 10.3029L6.10229 9.07843C6.25896 8.95014 6.4821 8.94375 6.64583 9.06319L9.34151 11.03C9.52711 11.1656 9.79005 11.0634 9.8366 10.838L11.8113 1.29195C11.8621 1.04575 11.6214 0.840357 11.3882 0.931027L0.384215 5.19714C0.11266 5.30239 0.115026 5.68877 0.387356 5.79133ZM3.93917 6.26167L9.17934 3.01818C9.27351 2.96006 9.37041 3.08804 9.28953 3.16343L4.96488 7.20341C4.81287 7.34561 4.71481 7.53592 4.68704 7.74248L4.53972 8.83963C4.52021 8.98612 4.31545 9.00066 4.27523 8.85889L3.70865 6.85819C3.64376 6.63 3.73832 6.38625 3.93917 6.26167Z" fill="#323232"/>
</svg>
