<svg width="12" height="12" viewBox="0 0 12 12" fill="none" xmlns="http://www.w3.org/2000/svg">
<path fill-rule="evenodd" clip-rule="evenodd" d="M6.10577 11.5183C9.2609 11.5183 11.8182 8.98054 11.8182 5.84997C11.8182 2.7194 9.26116 0.181641 6.10577 0.181641C2.95076 0.181641 0.393218 2.7194 0.393218 5.84997C0.393218 6.92091 0.692789 7.92267 1.21293 8.77678L0.181824 11.818L3.34446 10.813C4.16314 11.2623 5.10414 11.5183 6.10577 11.5183ZM8.77561 7.29586C8.87888 7.34942 8.94864 7.38559 8.97866 7.43875C9.01533 7.50479 9.01533 7.82188 8.89265 8.19218C8.76916 8.56189 8.16641 8.91863 7.89598 8.94501C7.84962 8.94956 7.81119 8.95953 7.77181 8.96975C7.58125 9.01921 7.36821 9.07449 6.12441 8.54906C4.73753 7.96287 3.82339 6.50788 3.63447 6.20718C3.61896 6.1825 3.60834 6.16559 3.60275 6.15759L3.6025 6.15724C3.52757 6.05039 3 5.29805 3 4.51938C3 3.79014 3.33378 3.40768 3.48749 3.23156C3.49805 3.21946 3.50777 3.20832 3.51646 3.19812C3.65182 3.03965 3.81184 3 3.91025 3C3.96112 3 4.01201 3.00354 4.0612 3.00697C4.10718 3.01017 4.15167 3.01327 4.19322 3.01327C4.20354 3.01327 4.21439 3.01251 4.22569 3.01173C4.30889 3.00593 4.41702 2.9984 4.52527 3.27743C4.56467 3.37911 4.62181 3.52828 4.68247 3.68666C4.81107 4.02242 4.95552 4.39956 4.98053 4.45334C5.0176 4.5328 5.04227 4.62523 4.9928 4.73092C4.98577 4.74613 4.97924 4.76051 4.973 4.77426C4.93579 4.85625 4.90869 4.91596 4.84531 4.99523C4.82088 5.02586 4.79562 5.05885 4.77035 5.09186C4.71935 5.15847 4.66829 5.22516 4.62382 5.27266C4.55007 5.35153 4.47306 5.43718 4.55907 5.59565C4.64522 5.75441 4.94155 6.27271 5.38031 6.69255C5.85231 7.14415 6.26243 7.33507 6.47006 7.43173C6.51048 7.45055 6.54323 7.4658 6.56727 7.4787C6.71502 7.55801 6.80103 7.54474 6.88718 7.43875C6.97346 7.33306 7.25643 6.97646 7.35471 6.81785C7.45299 6.65938 7.55167 6.68591 7.68702 6.73869C7.82197 6.79131 8.54793 7.17473 8.69569 7.25389C8.7242 7.2692 8.75087 7.28303 8.77561 7.29586Z" fill="#323232"/>
</svg>
