<svg width="14" height="14" viewBox="0 0 14 14" fill="none" xmlns="http://www.w3.org/2000/svg">
<path fill-rule="evenodd" clip-rule="evenodd" d="M0.351894 7.47874C0.0652269 3.41874 3.41856 0.06541 7.47856 0.352077C11.0052 0.592077 13.6652 3.67208 13.6652 7.21208V7.93874C13.6652 8.89874 13.1186 9.81208 12.2252 10.1654C11.1386 10.5987 9.95189 10.1721 9.35856 9.35874C8.59189 10.1387 7.42523 10.5321 6.19856 10.2454C4.93856 9.94541 3.94523 8.89208 3.71856 7.61874C3.31189 5.33874 5.22523 3.37874 7.49189 3.70541C9.14523 3.93874 10.3319 5.44541 10.3319 7.11874V7.95208C10.3319 8.47874 10.8052 8.99874 11.3319 8.99874C11.8586 8.99874 12.3319 8.47874 12.3319 7.95208V7.21874C12.3319 4.73208 10.7186 2.45208 8.30523 1.83874C4.43856 0.838743 0.83856 4.44541 1.83189 8.31208C2.45189 10.7187 4.73189 12.3321 7.21856 12.3321H9.66523C10.0319 12.3321 10.3319 12.6321 10.3319 12.9987C10.3319 13.3654 10.0319 13.6654 9.66523 13.6654H7.20523C3.67189 13.6654 0.591894 11.0054 0.351894 7.47874ZM4.99856 6.99874C4.99856 8.1054 5.89189 8.99874 6.99856 8.99874C8.10522 8.99874 8.99856 8.1054 8.99856 6.99874C8.99856 5.89207 8.10522 4.99874 6.99856 4.99874C5.89189 4.99874 4.99856 5.89207 4.99856 6.99874Z" fill="black"/>
</svg>
