<svg width="148" height="32" viewBox="0 0 148 32" fill="none" xmlns="http://www.w3.org/2000/svg">
<path fill-rule="evenodd" clip-rule="evenodd" d="M0 0.872559V31.1271H9.59889V21.5271H12.3777L16.8708 31.1271H27.924L22.1718 20.3116C25.422 18.5723 27.6332 15.1443 27.6332 11.1998C27.6332 5.49624 23.01 0.872559 17.3071 0.872559H0ZM15.8525 9.01792H9.30802V13.3816H15.8525C17.0574 13.3816 18.0343 12.4047 18.0343 11.1997C18.0343 9.99476 17.0574 9.01792 15.8525 9.01792Z" fill="#E41E25"/>
<path fill-rule="evenodd" clip-rule="evenodd" d="M119.841 0.872559V31.1271H129.44V21.5271H132.218L136.712 31.1271H147.765L142.013 20.3116C145.263 18.5723 147.474 15.1443 147.474 11.1998C147.474 5.49624 142.851 0.872559 137.148 0.872559H119.841ZM135.693 9.01792H129.149V13.3816H135.693C136.898 13.3816 137.875 12.4047 137.875 11.1997C137.875 9.99476 136.898 9.01792 135.693 9.01792Z" fill="#E41E25"/>
<path fill-rule="evenodd" clip-rule="evenodd" d="M93.9529 21.8183H93.9528V25.3772C90.8874 29.3899 85.9059 32 80.2817 32C73.1286 32 67.0152 27.778 64.561 21.8183H76.3346C77.4713 22.5544 78.8266 22.9818 80.2817 22.9818C81.7367 22.9818 83.092 22.5544 84.2287 21.8183H79.1182V12.8001H93.9529V21.8183ZM73.6148 12.8001C74.7369 10.2315 77.2997 8.43636 80.2817 8.43636C81.8441 8.43636 83.2915 8.92921 84.4769 9.76794L91.594 4.12969C88.6015 1.56311 84.6341 0 80.2817 0C72.1197 0 65.3115 5.49691 63.7484 12.8001H73.6148Z" fill="#E41E25"/>
<path fill-rule="evenodd" clip-rule="evenodd" d="M104.715 0.872559H95.1162V9.30892V12.8001H104.715V9.30892H118.677V0.872559H104.715ZM104.715 21.8183H95.1162V31.1271H104.715V31.1271H118.677V22.6907H104.715V21.8183Z" fill="#E41E25"/>
<path fill-rule="evenodd" clip-rule="evenodd" d="M62.2473 16C62.2473 24.8366 54.694 32 45.3765 32C38.3403 32 32.3102 27.9149 29.7792 22.1092H41.9202C42.9482 22.6656 44.1255 22.9816 45.3765 22.9816C49.3926 22.9816 52.6484 19.7255 52.6484 15.7088C52.6484 11.6922 49.3926 8.43612 45.3765 8.43612C42.3944 8.43612 39.8316 10.2313 38.7095 12.8001H28.8432C30.4063 5.49688 37.2145 0 45.3765 0C54.694 0 62.2473 7.16344 62.2473 16Z" fill="#E41E25"/>
<path d="M30.1586 17.913V18.8517H31.6639C31.7048 18.8517 31.7518 18.8431 31.8048 18.826C31.8578 18.8089 31.9071 18.782 31.9529 18.7454C32.001 18.7087 32.042 18.6598 32.0757 18.5987C32.1094 18.5376 32.1263 18.463 32.1263 18.375C32.1263 18.3017 32.113 18.2369 32.0865 18.1807C32.0625 18.122 32.0287 18.0731 31.9854 18.034C31.9445 17.9949 31.8951 17.9655 31.8373 17.946C31.7819 17.924 31.7229 17.913 31.6603 17.913H30.1586ZM31.5194 16.0685C31.5194 16.0685 30.6813 16.0685 30.1586 16.0685V16.9046H31.5158C31.5567 16.9046 31.5988 16.896 31.6422 16.8789C31.6856 16.8593 31.7241 16.8325 31.7578 16.7982C31.7939 16.7616 31.8228 16.7176 31.8445 16.6662C31.8686 16.6149 31.8806 16.5562 31.8806 16.4902C31.8806 16.4266 31.8698 16.3692 31.8481 16.3179C31.8264 16.2665 31.7975 16.2225 31.7614 16.1859C31.7277 16.1492 31.6892 16.1211 31.6458 16.1015C31.6049 16.0795 31.5627 16.0685 31.5194 16.0685ZM31.8048 19.9518H28.7967V14.9648H31.5988C31.8565 14.9648 32.0878 14.9953 32.2925 15.0564C32.4972 15.1176 32.6718 15.208 32.8163 15.3278C32.9608 15.4476 33.0716 15.5955 33.1486 15.7715C33.2257 15.9475 33.2642 16.1516 33.2642 16.3839C33.2642 16.4841 33.2474 16.5831 33.2137 16.6809C33.1824 16.7787 33.1402 16.8691 33.0872 16.9522C33.0342 17.0329 32.9728 17.105 32.903 17.1686C32.8356 17.2297 32.7657 17.2749 32.6935 17.3043C32.8042 17.3483 32.9102 17.4082 33.0114 17.4839C33.1125 17.5573 33.2016 17.6428 33.2787 17.7406C33.3558 17.836 33.4172 17.9423 33.4629 18.0596C33.5087 18.177 33.5316 18.3017 33.5316 18.4337C33.5316 18.7173 33.4798 18.9556 33.3762 19.1487C33.2751 19.3418 33.1426 19.4983 32.9789 19.6181C32.8151 19.7379 32.6296 19.8234 32.4225 19.8748C32.2178 19.9261 32.0119 19.9518 31.8048 19.9518Z" fill="#323232"/>
<path d="M34.648 17.4509C34.648 17.0867 34.719 16.7469 34.8611 16.4315C35.0032 16.1137 35.1959 15.8363 35.4391 15.5991C35.6848 15.362 35.9714 15.1762 36.2989 15.0418C36.6289 14.9049 36.9817 14.8364 37.3574 14.8364C37.7307 14.8364 38.0811 14.9049 38.4087 15.0418C38.7386 15.1762 39.0264 15.362 39.2721 15.5991C39.5177 15.8363 39.7116 16.1137 39.8537 16.4315C39.9958 16.7469 40.0669 17.0867 40.0669 17.4509C40.0669 17.8127 39.9958 18.1538 39.8537 18.474C39.7116 18.7918 39.5177 19.0693 39.2721 19.3064C39.0264 19.5435 38.7386 19.7305 38.4087 19.8674C38.0811 20.0043 37.7307 20.0728 37.3574 20.0728C36.9817 20.0728 36.6289 20.0043 36.2989 19.8674C35.9714 19.7305 35.6848 19.5435 35.4391 19.3064C35.1959 19.0693 35.0032 18.7918 34.8611 18.474C34.719 18.1538 34.648 17.8127 34.648 17.4509ZM36.0063 17.4546C36.0063 17.6624 36.0412 17.8567 36.1111 18.0376C36.1833 18.2161 36.2797 18.3713 36.4001 18.5033C36.5229 18.6329 36.6662 18.7356 36.83 18.8114C36.9938 18.8847 37.1696 18.9214 37.3574 18.9214C37.5453 18.9214 37.7211 18.8847 37.8849 18.8114C38.051 18.7356 38.1943 18.6329 38.3148 18.5033C38.4376 18.3713 38.5339 18.2161 38.6038 18.0376C38.6736 17.8567 38.7085 17.6624 38.7085 17.4546C38.7085 17.2444 38.6736 17.05 38.6038 16.8716C38.5339 16.6931 38.4376 16.5391 38.3148 16.4095C38.1943 16.2775 38.051 16.1749 37.8849 16.1015C37.7211 16.0257 37.5453 15.9878 37.3574 15.9878C37.1696 15.9878 36.9938 16.0257 36.83 16.1015C36.6662 16.1749 36.5229 16.2775 36.4001 16.4095C36.2797 16.5391 36.1833 16.6931 36.1111 16.8716C36.0412 17.05 36.0063 17.2444 36.0063 17.4546Z" fill="#323232"/>
<path d="M43.2641 16.7506L43.2244 16.9339L42.7692 18.1367H43.7699L43.3147 16.9339L43.2786 16.7506H43.2641ZM45.8941 19.9518H44.4563L44.1998 19.2771H42.3393L42.0864 19.9518H40.6486L42.6355 14.9611H43.9072L45.8941 19.9518Z" fill="#323232"/>
<path d="M47.9643 19.9518V16.1162H46.3765V14.9648H50.9032V16.1162H49.319V19.9518H47.9643Z" fill="#323232"/>
<path d="M62.1902 13.3813H78.5363V13.9632H62.2764L62.1902 13.3813Z" fill="#323232"/>
<path d="M27.3423 13.6723L52.0667 13.3813L52.2121 13.9632L27.3423 13.6723Z" fill="#323232"/>
<rect x="94.2437" y="13.6729" width="25.0153" height="0.581818" fill="#323232"/>
<path d="M62.2474 15.1273L78.5364 14.8364V15.4182L62.2474 15.1273Z" fill="#323232"/>
<rect x="94.2437" y="15.1274" width="25.0153" height="0.581818" fill="#323232"/>
<path d="M62.2474 16.5819L78.5364 16.291V16.8728L62.2474 16.5819Z" fill="#323232"/>
<rect x="94.2437" y="16.582" width="25.0153" height="0.581818" fill="#323232"/>
<path d="M62.2474 18.0365L78.5364 17.7456V18.3274L62.2474 18.0365Z" fill="#323232"/>
<rect x="94.2437" y="18.0361" width="25.0153" height="0.581818" fill="#323232"/>
<path d="M61.9565 19.4901L78.5364 19.1992V19.781L61.9565 19.4901Z" fill="#323232"/>
<rect x="94.2437" y="19.4902" width="25.0153" height="0.581818" fill="#323232"/>
<path d="M61.7461 20.6543H78.5363V21.2361H61.5201L61.7461 20.6543Z" fill="#323232"/>
<path d="M22.5428 20.9452L50.4669 20.6543L49.7397 21.2361L22.5428 20.9452Z" fill="#323232"/>
<rect x="94.2437" y="20.9458" width="25.0153" height="0.581818" fill="#323232"/>
</svg>
